# xmcd
#
# Track frame offsets:
#	183
#	16760
#	40230
#	57940
#	72158
#	90258
#	111773
#	134160
#
# Disc length: 2188 seconds
# Revision: 0
# Processed by: cddbd v1.5.2PL0 Copyright (c) Steve Scherf et al.
# Submitted via: dBpowerAMP V12.0
#
DISCID=64088a08
DTITLE=Various Artist - Sky Ranch-Le Vrai Son de l'Amérique (Label Promo)
DYEAR=1993
DGENRE=Blues
TTITLE0=John 'Juke' Logan - She's Cool People
TTITLE1=John 'Juke' Logan - The Chill
TTITLE2=Greg Brown - Go Wherever You Want
TTITLE3=Greg Brown - Dry land
TTITLE4=Colin Linden - I Don't Know That Guy
TTITLE5=Colin Linden - Just By Myself
TTITLE6=David Lindley - Attar
TTITLE7=Steve Kimock - It's Up To You
EXTD=
EXTT0=
EXTT1=
EXTT2=
EXTT3=
EXTT4=
EXTT5=
EXTT6=
EXTT7=
PLAYORDER=
